<?xml version="1.0" encoding="iso-8859-1"?>
<!-- Generator: Adobe Illustrator 19.0.0, SVG Export Plug-In . SVG Version: 6.00 Build 0)  -->
<svg version="1.1" id="Capa_1" xmlns="http://www.w3.org/2000/svg" xmlns:xlink="http://www.w3.org/1999/xlink" x="0px" y="0px"
	 viewBox="0 0 384 384" style="enable-background:new 0 0 384 384;" xml:space="preserve">
<g>
	<g>
		<path d="M323.32,131.076c-33.456,0-60.68,27.248-60.68,60.736c0,33.504,27.224,60.752,60.68,60.752S384,225.308,384,191.812
			C384,158.324,356.776,131.076,323.32,131.076z M323.32,220.572c-15.816,0-28.68-12.896-28.68-28.752
			c0-15.848,12.864-28.736,28.68-28.736c15.816,0,28.68,12.888,28.68,28.736C352,207.668,339.136,220.572,323.32,220.572z"/>
	</g>
</g>
<g>
	<g>
		<path d="M214.4,323.652l33-33.04c6.248-6.248,6.24-16.384-0.016-22.624c-6.248-6.248-16.376-6.24-22.624,0.016l-32.968,33.008
			l-32.968-33.008c-6.24-6.248-16.368-6.256-22.624-0.016c-6.256,6.24-6.264,16.376-0.016,22.624l33,33.04l-33,33.04
			c-6.248,6.248-6.24,16.384,0.016,22.624c3.12,3.12,7.216,4.68,11.304,4.68c4.096,0,8.192-1.568,11.32-4.696l32.968-33.008
			L224.76,379.3c3.128,3.128,7.224,4.696,11.32,4.696c4.088,0,8.184-1.56,11.304-4.68c6.256-6.24,6.264-16.376,0.016-22.624
			L214.4,323.652z"/>
	</g>
</g>
<g>
	<g>
		<path d="M250.432,97.564L206.128,8.852c-2.712-5.424-8.256-8.848-14.32-8.848c-6.064,0-11.608,3.432-14.32,8.848l-44.296,88.712
			c-2.48,4.96-2.208,10.848,0.704,15.56c2.936,4.712,8.088,7.584,13.632,7.584h88.592c5.544,0,10.688-2.872,13.608-7.584
			C252.64,108.412,252.912,102.524,250.432,97.564z M173.4,88.708l18.424-36.896l18.424,36.896H173.4z"/>
	</g>
</g>
<g>
	<g>
		<path d="M102.176,132.676H16c-8.832,0-16,7.168-16,16v86.288c0,8.84,7.168,16,16,16h86.176c8.832,0,16-7.168,16-16v-86.288
			C118.176,139.844,111.008,132.676,102.176,132.676z M86.176,218.964H32v-54.288h54.176V218.964z"/>
	</g>
</g>
<g>
</g>
<g>
</g>
<g>
</g>
<g>
</g>
<g>
</g>
<g>
</g>
<g>
</g>
<g>
</g>
<g>
</g>
<g>
</g>
<g>
</g>
<g>
</g>
<g>
</g>
<g>
</g>
<g>
</g>
</svg>
